<svg width="57" height="57" viewBox="0 0 57 57" fill="none" xmlns="http://www.w3.org/2000/svg">
<g clip-path="url(#clip0_35_47)">
<path d="M47.689 12.9477L42.3402 43.2823C42.1138 44.5625 41.4859 45.7375 40.5474 46.6371C39.6089 47.5368 38.4085 48.1145 37.1199 48.2866C35.8313 48.4588 34.5213 48.2165 33.3796 47.5947C32.2378 46.973 31.3235 46.0041 30.769 44.8282C30.2144 43.6524 30.0484 42.3306 30.2949 41.0541C30.5414 39.7777 31.1877 38.6127 32.1402 37.728C33.0927 36.8432 34.3021 36.2844 35.5932 36.1325C36.8844 35.9806 38.1904 36.2435 39.3222 36.8831L41.833 22.6437L21.4315 20.7713L17.8579 41.0386C17.6314 42.3188 17.0035 43.4937 16.0651 44.3934C15.1266 45.293 13.9262 45.8707 12.6376 46.0429C11.349 46.2151 10.039 45.9727 8.89725 45.351C7.75551 44.7293 6.8412 43.7604 6.28665 42.5845C5.7321 41.4087 5.56608 40.0869 5.81259 38.8104C6.05911 37.5339 6.70539 36.369 7.65791 35.4842C8.61042 34.5994 9.81976 34.0407 11.1109 33.8888C12.4021 33.7369 13.7081 33.9998 14.8399 34.6394L19.1262 10.3307L47.689 12.9477Z" fill="black"/>
</g>
<defs>
<clipPath id="clip0_35_47">
<rect width="49" height="49" fill="white" transform="translate(8.50879) rotate(10)"/>
</clipPath>
</defs>
</svg>
